<svg xmlns="http://www.w3.org/2000/svg" viewBox="0 0 595.28 841.89"><defs><style>.cls-1{fill:#f07522;}</style></defs><title>LOGOArtboard 5 copy 4</title><g id="Layer_4" data-name="Layer 4"><path class="cls-1" d="M372.69,380.05a20.47,20.47,0,1,1-20.47,20.47A20.48,20.48,0,0,1,372.69,380.05Zm6.82,20.47a6.82,6.82,0,1,0-6.82,6.82A6.82,6.82,0,0,0,379.51,400.52Z"/><path class="cls-1" d="M348.43,363.38a6.83,6.83,0,0,1,0,9.65l-5,5a6.82,6.82,0,0,1-9.65-9.64l5-5A6.83,6.83,0,0,1,348.43,363.38Z"/><path class="cls-1" d="M345.4,386.88v27.61h0a6.82,6.82,0,0,1-13.64,0V386.88a6.83,6.83,0,1,1,13.65,0Z"/><path class="cls-1" d="M304.46,380.05a20.47,20.47,0,1,1-6.82,39.77v21.8a6.83,6.83,0,0,1-13.65,0V386.88a6.82,6.82,0,0,1,11.64-4.83h0A20.38,20.38,0,0,1,304.46,380.05Zm6.82,20.47a6.82,6.82,0,1,0-6.82,6.82A6.82,6.82,0,0,0,311.28,400.52Z"/><path class="cls-1" d="M277.17,386.88v27.61a6.82,6.82,0,0,1-13.64,0V386.88a6.82,6.82,0,1,1,13.64,0Z"/><circle class="cls-1" cx="270.35" cy="373.23" r="6.82"/><path class="cls-1" d="M256.7,390.32v24.21a6.82,6.82,0,0,1-13.64,0v-14a3.41,3.41,0,0,0-6.82,0h0v14a6.82,6.82,0,0,1-13.64,0v-14a3.41,3.41,0,0,0-6.82,0v14a6.82,6.82,0,0,1-13.64,0V380.05a6.82,6.82,0,0,1,13.64,0v10.23a10.24,10.24,0,0,1,20.47,0,10.24,10.24,0,0,1,20.47,0Z"/><path class="cls-1" d="M194.81,473.66l-.2-1.52h-.06a4.5,4.5,0,0,1-3.7,1.8,3.45,3.45,0,0,1-3.69-3.47c0-2.93,2.59-4.54,7.26-4.5v-.26a2.49,2.49,0,0,0-2.75-2.79,6,6,0,0,0-3.15.9l-.5-1.46a7.57,7.57,0,0,1,4-1.06c3.7,0,4.6,2.53,4.6,4.95v4.52a19.64,19.64,0,0,0,.18,2.89Zm-.34-6.17c-2.38-.05-5.11.38-5.11,2.71a1.94,1.94,0,0,0,2.06,2.11,3,3,0,0,0,2.94-2,2.16,2.16,0,0,0,.11-.69Z"/><path class="cls-1" d="M200.16,455.92h2.18v17.74h-2.18Z"/><path class="cls-1" d="M208.51,458.16a1.32,1.32,0,0,1-1.4,1.36,1.3,1.3,0,0,1-1.32-1.36,1.36,1.36,0,1,1,2.72,0Zm-2.45,15.5V461.57h2.18v12.09Z"/><path class="cls-1" d="M218.61,473.66l-.2-1.52h-.06a4.52,4.52,0,0,1-3.7,1.8,3.45,3.45,0,0,1-3.69-3.47c0-2.93,2.59-4.54,7.26-4.5v-.26a2.49,2.49,0,0,0-2.75-2.79,5.93,5.93,0,0,0-3.15.9l-.5-1.46a7.57,7.57,0,0,1,4-1.06c3.7,0,4.6,2.53,4.6,4.95v4.52a18.35,18.35,0,0,0,.18,2.89Zm-.35-6.17c-2.37-.05-5.1.38-5.1,2.71a1.94,1.94,0,0,0,2.06,2.11,3,3,0,0,0,2.94-2,2.14,2.14,0,0,0,.1-.69Z"/><path class="cls-1" d="M234.39,455.92v14.62c0,1.08,0,2.29.1,3.12h-2l-.11-2.09h-.06a4.42,4.42,0,0,1-4.1,2.37c-2.93,0-5.19-2.48-5.19-6.14,0-4.05,2.49-6.5,5.43-6.5a4,4,0,0,1,3.65,1.83h0v-7.21Zm-2.19,10.57a5.07,5.07,0,0,0-.09-.94,3.26,3.26,0,0,0-3.18-2.53c-2.28,0-3.64,2-3.64,4.66,0,2.45,1.22,4.49,3.59,4.49a3.31,3.31,0,0,0,3.21-2.64,3.51,3.51,0,0,0,.11-.94Z"/><path class="cls-1" d="M249,467.5c0,4.48-3.1,6.44-6,6.44-3.28,0-5.82-2.39-5.82-6.23,0-4,2.66-6.41,6-6.41S249,463.82,249,467.5Zm-9.58.14c0,2.65,1.52,4.65,3.66,4.65s3.69-2,3.69-4.71c0-2.05-1-4.63-3.65-4.63S239.41,465.35,239.41,467.64Z"/><path class="cls-1" d="M258.31,468c0,3,1.93,4.2,4.14,4.2a8,8,0,0,0,3.34-.62l.39,1.56a9.76,9.76,0,0,1-4,.77c-3.72,0-5.95-2.47-5.95-6.1s2.16-6.52,5.69-6.52c3.94,0,5,3.46,5,5.68a6.15,6.15,0,0,1-.07,1Zm6.43-1.58c0-1.38-.57-3.55-3-3.55-2.24,0-3.2,2-3.38,3.55Z"/><path class="cls-1" d="M269.6,464.84c0-1.26,0-2.26-.1-3.27h1.95l.12,2h.06a4.47,4.47,0,0,1,4-2.26c1.66,0,4.26,1,4.26,5.15v7.21H277.7v-7c0-1.95-.74-3.59-2.8-3.59a3.16,3.16,0,0,0-3,2.26,3.48,3.48,0,0,0-.15,1v7.28H269.6Z"/><path class="cls-1" d="M291.42,458.09v3.48h3.15v1.67h-3.15v6.51c0,1.51.43,2.36,1.66,2.36a4.31,4.31,0,0,0,1.27-.16l.1,1.67a5.54,5.54,0,0,1-2,.3,3.05,3.05,0,0,1-2.37-.93,4.58,4.58,0,0,1-.86-3.15v-6.6h-1.87v-1.67h1.87v-2.91Z"/><path class="cls-1" d="M307.16,470.35c0,1.27,0,2.36.1,3.31h-1.94l-.12-2h-.06a4.53,4.53,0,0,1-4,2.25c-1.89,0-4.16-1.06-4.16-5.3v-7.07h2.18v6.68c0,2.3.72,3.87,2.7,3.87a3.19,3.19,0,0,0,2.91-2A3.25,3.25,0,0,0,305,469v-7.41h2.19Zm-1.5-14-3.05,3.58h-1.56l2.19-3.58Z"/><path class="cls-1" d="M316.13,464.84c0-1.26-.05-2.26-.1-3.27H318l.12,2h.06a4.47,4.47,0,0,1,4-2.26c1.66,0,4.26,1,4.26,5.15v7.21h-2.19v-7c0-1.95-.73-3.59-2.79-3.59a3.27,3.27,0,0,0-3.12,3.28v7.28h-2.18Z"/><path class="cls-1" d="M340.11,470.35c0,1.27,0,2.36.1,3.31h-1.94l-.12-2h-.06a4.53,4.53,0,0,1-4,2.25c-1.89,0-4.17-1.06-4.17-5.3v-7.07h2.19v6.68c0,2.3.72,3.87,2.7,3.87a3.19,3.19,0,0,0,2.91-2,3.51,3.51,0,0,0,.2-1.13v-7.41h2.19Z"/><path class="cls-1" d="M346.41,458.09v3.48h3.16v1.67h-3.16v6.51c0,1.51.44,2.36,1.67,2.36a4.31,4.31,0,0,0,1.27-.16l.1,1.67a5.58,5.58,0,0,1-2,.3,3.09,3.09,0,0,1-2.38-.93,4.64,4.64,0,0,1-.85-3.15v-6.6h-1.87v-1.67h1.87v-2.91Z"/><path class="cls-1" d="M352.05,465.34c0-1.43,0-2.64-.1-3.77h1.92L354,464H354a3.67,3.67,0,0,1,3.37-2.65,2.34,2.34,0,0,1,.61.06v2.07a3.3,3.3,0,0,0-.75-.06,3.07,3.07,0,0,0-2.94,2.81,5.53,5.53,0,0,0-.09,1v6.46h-2.18Z"/><path class="cls-1" d="M362.78,458.16a1.32,1.32,0,0,1-1.4,1.36,1.3,1.3,0,0,1-1.32-1.36,1.36,1.36,0,1,1,2.72,0Zm-2.46,15.5V461.57h2.19v12.09Z"/><path class="cls-1" d="M374.79,473.22a8.19,8.19,0,0,1-3.47.7c-3.64,0-6-2.48-6-6.17a6.16,6.16,0,0,1,6.5-6.45,7,7,0,0,1,3,.65l-.49,1.69a5.26,5.26,0,0,0-2.57-.59c-2.75,0-4.27,2.07-4.26,4.58,0,2.8,1.8,4.52,4.21,4.52a6.37,6.37,0,0,0,2.69-.58Z"/><path class="cls-1" d="M379.83,458.16a1.32,1.32,0,0,1-1.4,1.36,1.3,1.3,0,0,1-1.32-1.36,1.36,1.36,0,1,1,2.72,0Zm-2.46,15.5V461.57h2.19v12.09Z"/><path class="cls-1" d="M394.16,467.5c0,4.48-3.1,6.44-6,6.44-3.28,0-5.82-2.39-5.82-6.23,0-4,2.66-6.41,6-6.41S394.16,463.82,394.16,467.5Zm-9.58.14c0,2.65,1.52,4.65,3.66,4.65s3.69-2,3.69-4.71c0-2.05-1-4.63-3.65-4.63S384.58,465.35,384.58,467.64Zm7-11.31-3.05,3.58h-1.56l2.19-3.58Z"/><path class="cls-1" d="M397,464.84c0-1.26,0-2.26-.1-3.27h1.94l.12,2H399a4.48,4.48,0,0,1,4-2.26c1.66,0,4.26,1,4.26,5.15v7.21H405v-7c0-1.95-.73-3.59-2.79-3.59a3.16,3.16,0,0,0-3,2.26,3.48,3.48,0,0,0-.15,1v7.28H397Z"/></g></svg>