<svg xmlns="http://www.w3.org/2000/svg" viewBox="0 0 595.28 841.89"><defs><style>.cls-1{fill:#f1b71c;}.cls-2{fill:#f1a01f;}.cls-3{fill:none;stroke:#fff;stroke-miterlimit:10;stroke-width:6px;}.cls-4{fill:#f07522;}</style></defs><title>LOGOArtboard 5 copy 2</title><g id="Layer_1" data-name="Layer 1"><path class="cls-1" d="M372.69,315.24c23.84,46.34-43.2,177.28-67.62,217.46-18.86,31-37.4,29.63-37.4,29.63s-18.53,1.38-37.39-29.63c-24.42-40.18-91.46-171.12-67.63-217.46s59.13-32.95,76.9-24.16c14.69,7.27,22,7.34,28.12,7.5,6.09-.16,13.44-.23,28.13-7.5C313.57,282.29,348.86,268.9,372.69,315.24Z"/><path class="cls-2" d="M459.52,214.78c36.74,71.43-66.6,273.27-104.25,335.21-29.06,47.81-57.64,45.68-57.64,45.68S269.06,597.8,240,550c-5.6-9.21-12.74-22.26-9.72-17.29,18.86,31,37.39,29.63,37.39,29.63s18.54,1.38,37.39-29.63c24.42-40.18,91.46-171.12,67.63-217.46s-59.12-32.95-76.89-24.16c-14.69,7.27-22,7.34-28.13,7.5-6.09-.16-13.43-.23-28.12-7.5-17.77-8.79-53.07-22.18-76.9,24.16-8,15.63-20.08,7.74-28.24-10.65-7.8-35-9.33-66,0-87,.43-1,.88-1.9,1.35-2.81,36.73-71.43,91.13-50.79,118.53-37.24,22.65,11.2,34,11.31,43.35,11.55,9.39-.24,20.71-.35,43.36-11.55C368.38,164,422.79,143.35,459.52,214.78Z"/></g><g id="Layer_3" data-name="Layer 3"><path class="cls-3" d="M230.28,532.7c1.57,3,6.07,11,9.86,17.2"/><path class="cls-3" d="M134.55,304.5c7.89,17.78,19.41,25.74,27.43,12.14"/><path class="cls-3" d="M240.14,549.9c29.06,47.81,57.63,45.68,57.63,45.68s28.58,2.13,57.64-45.68c37.65-61.94,141-263.78,104.25-335.21s-91.14-50.79-118.53-37.24c-22.65,11.2-34,11.31-43.36,11.55-9.38-.24-20.7-.35-43.35-11.55-27.4-13.55-81.8-34.19-118.53,37.24"/><path class="cls-3" d="M135.89,214.69c-.47.91-.92,1.85-1.35,2.81"/><path class="cls-3" d="M134.54,217.5c-9.32,21-7.79,52,0,87"/><path class="cls-3" d="M162,316.64c-21.84,47.51,44.12,176.27,68.3,216.06"/><path class="cls-3" d="M372.7,315.24c-23.83-46.33-59.13-32.95-76.9-24.16-14.69,7.27-22,7.34-28.12,7.5-6.09-.16-13.44-.23-28.13-7.5-17.77-8.79-53.06-22.17-76.89,24.16s43.21,177.28,67.63,217.46c18.85,31,37.39,29.63,37.39,29.63s18.53,1.39,37.39-29.63C329.49,492.52,396.53,361.58,372.7,315.24Z"/></g><g id="Layer_4" data-name="Layer 4"><path class="cls-4" d="M372.69,609.61a20.47,20.47,0,1,1-20.47,20.47A20.48,20.48,0,0,1,372.69,609.61Zm6.82,20.47a6.82,6.82,0,1,0-6.82,6.82A6.82,6.82,0,0,0,379.51,630.08Z"/><path class="cls-4" d="M348.43,592.94a6.83,6.83,0,0,1,0,9.65l-5,5a6.82,6.82,0,0,1-9.65-9.64l5-5A6.83,6.83,0,0,1,348.43,592.94Z"/><path class="cls-4" d="M345.4,616.44v27.61h0a6.82,6.82,0,0,1-13.64,0V616.44a6.83,6.83,0,1,1,13.65,0Z"/><path class="cls-4" d="M304.46,609.61a20.47,20.47,0,1,1-6.82,39.77v21.8a6.83,6.83,0,0,1-13.65,0V616.44a6.82,6.82,0,0,1,11.64-4.83h0A20.38,20.38,0,0,1,304.46,609.61Zm6.82,20.47a6.82,6.82,0,1,0-6.82,6.82A6.82,6.82,0,0,0,311.28,630.08Z"/><path class="cls-4" d="M277.17,616.44v27.61a6.82,6.82,0,0,1-13.64,0V616.44a6.82,6.82,0,1,1,13.64,0Z"/><circle class="cls-4" cx="270.35" cy="602.79" r="6.82"/><path class="cls-4" d="M256.7,619.88v24.21a6.82,6.82,0,0,1-13.64,0v-14a3.41,3.41,0,0,0-6.82,0h0v14a6.82,6.82,0,0,1-13.64,0v-14a3.41,3.41,0,1,0-6.82,0v14a6.82,6.82,0,0,1-13.64,0V609.61a6.82,6.82,0,0,1,13.64,0v10.23a10.24,10.24,0,0,1,20.47,0,10.24,10.24,0,0,1,20.47,0Z"/></g></svg>