<svg xmlns="http://www.w3.org/2000/svg" viewBox="0 0 595.28 841.89"><defs><style>.cls-1{fill:#f07522;}</style></defs><title>LOGOArtboard 5 copy 5</title><g id="Layer_4" data-name="Layer 4"><path class="cls-1" d="M372.69,396.29a20.47,20.47,0,1,1-20.47,20.47A20.48,20.48,0,0,1,372.69,396.29Zm6.82,20.47a6.82,6.82,0,1,0-6.82,6.82A6.82,6.82,0,0,0,379.51,416.76Z"/><path class="cls-1" d="M348.43,379.62a6.83,6.83,0,0,1,0,9.65l-5,5a6.82,6.82,0,1,1-9.65-9.64l5-5A6.83,6.83,0,0,1,348.43,379.62Z"/><path class="cls-1" d="M345.4,403.12v27.61h0a6.82,6.82,0,0,1-13.64,0V403.12a6.83,6.83,0,1,1,13.65,0Z"/><path class="cls-1" d="M304.46,396.29a20.47,20.47,0,1,1-6.82,39.77v21.8a6.83,6.83,0,1,1-13.65,0V403.12a6.82,6.82,0,0,1,11.64-4.83h0A20.38,20.38,0,0,1,304.46,396.29Zm6.82,20.47a6.82,6.82,0,1,0-6.82,6.82A6.82,6.82,0,0,0,311.28,416.76Z"/><path class="cls-1" d="M277.17,403.12v27.61a6.82,6.82,0,0,1-13.64,0V403.12a6.82,6.82,0,1,1,13.64,0Z"/><circle class="cls-1" cx="270.35" cy="389.47" r="6.82"/><path class="cls-1" d="M256.7,406.56v24.21a6.82,6.82,0,0,1-13.64,0v-14a3.41,3.41,0,0,0-6.82,0h0v14a6.82,6.82,0,0,1-13.64,0v-14a3.41,3.41,0,0,0-6.82,0v14a6.82,6.82,0,0,1-13.64,0V396.29a6.82,6.82,0,0,1,13.64,0v10.22a10.24,10.24,0,0,1,20.47,0,10.24,10.24,0,0,1,20.47,0Z"/></g></svg>