<svg xmlns="http://www.w3.org/2000/svg" viewBox="0 0 595.28 841.89"><defs><style>.cls-1{fill:#f1b71c;}.cls-2{fill:#f1a01f;}.cls-3{fill:none;stroke:#fff;stroke-miterlimit:10;stroke-width:6px;}.cls-4{fill:#f07522;}</style></defs><title>LOGO04Artboard 5 copy</title><g id="Layer_1" data-name="Layer 1"><path class="cls-1" d="M372.69,301.38c23.84,46.34-43.2,177.28-67.62,217.46-18.86,31-37.4,29.63-37.4,29.63s-18.53,1.38-37.39-29.63c-24.42-40.18-91.46-171.12-67.63-217.46s59.13-32.95,76.9-24.16c14.69,7.27,22,7.34,28.12,7.5,6.09-.16,13.44-.23,28.13-7.5C313.57,268.43,348.86,255,372.69,301.38Z"/><path class="cls-2" d="M459.52,200.92c36.74,71.43-66.6,273.27-104.25,335.21-29.06,47.81-57.64,45.68-57.64,45.68s-28.57,2.13-57.63-45.68c-5.6-9.21-12.74-22.26-9.72-17.29,18.86,31,37.39,29.63,37.39,29.63s18.54,1.38,37.39-29.63c24.42-40.18,91.46-171.12,67.63-217.46s-59.12-32.95-76.89-24.16c-14.69,7.27-22,7.34-28.13,7.5-6.09-.16-13.43-.23-28.12-7.5-17.77-8.79-53.07-22.18-76.9,24.16-8,15.63-20.08,7.74-28.24-10.65-7.8-35-9.33-66,0-87,.43-1,.88-1.9,1.35-2.81,36.73-71.43,91.13-50.79,118.53-37.24,22.65,11.2,34,11.31,43.35,11.55,9.39-.24,20.71-.35,43.36-11.55C368.38,150.13,422.79,129.49,459.52,200.92Z"/></g><g id="Layer_3" data-name="Layer 3"><path class="cls-3" d="M230.28,518.84c1.57,3,6.07,11,9.86,17.2"/><path class="cls-3" d="M134.55,290.64c7.89,17.78,19.41,25.74,27.43,12.14"/><path class="cls-3" d="M240.14,536c29.06,47.81,57.63,45.68,57.63,45.68s28.58,2.13,57.64-45.68c37.65-61.94,141-263.78,104.25-335.21S368.52,150,341.13,163.59c-22.65,11.2-34,11.31-43.36,11.55-9.38-.24-20.7-.35-43.35-11.55C227,150,172.62,129.4,135.89,200.83"/><path class="cls-3" d="M135.89,200.83c-.47.91-.92,1.85-1.35,2.81"/><path class="cls-3" d="M134.54,203.64c-9.32,21-7.79,52,0,87"/><path class="cls-3" d="M162,302.78c-21.84,47.51,44.12,176.27,68.3,216.06"/><path class="cls-3" d="M372.7,301.39c-23.83-46.34-59.13-33-76.9-24.17-14.69,7.27-22,7.34-28.12,7.5-6.09-.16-13.44-.23-28.13-7.5-17.77-8.79-53.06-22.17-76.89,24.17s43.21,177.27,67.63,217.45c18.85,31,37.39,29.64,37.39,29.64s18.53,1.38,37.39-29.64C329.49,478.66,396.53,347.72,372.7,301.39Z"/></g><g id="Layer_4" data-name="Layer 4"><path class="cls-4" d="M372.69,595.75a20.47,20.47,0,1,1-20.47,20.47A20.48,20.48,0,0,1,372.69,595.75Zm6.82,20.47a6.82,6.82,0,1,0-6.82,6.82A6.82,6.82,0,0,0,379.51,616.22Z"/><path class="cls-4" d="M348.43,579.08a6.83,6.83,0,0,1,0,9.65l-5,5a6.82,6.82,0,1,1-9.65-9.64l5-5A6.84,6.84,0,0,1,348.43,579.08Z"/><path class="cls-4" d="M345.4,602.58v27.61h0a6.82,6.82,0,0,1-13.64,0V602.58a6.83,6.83,0,1,1,13.65,0Z"/><path class="cls-4" d="M304.46,595.75a20.47,20.47,0,1,1-6.82,39.77v21.8a6.83,6.83,0,1,1-13.65,0V602.58a6.82,6.82,0,0,1,11.64-4.83h0A20.38,20.38,0,0,1,304.46,595.75Zm6.82,20.47a6.82,6.82,0,1,0-6.82,6.82A6.82,6.82,0,0,0,311.28,616.22Z"/><path class="cls-4" d="M277.17,602.58v27.61a6.82,6.82,0,0,1-13.64,0V602.58a6.82,6.82,0,1,1,13.64,0Z"/><circle class="cls-4" cx="270.35" cy="588.93" r="6.82"/><path class="cls-4" d="M256.7,606v24.21a6.82,6.82,0,0,1-13.64,0v-14a3.41,3.41,0,0,0-6.82,0h0v14a6.82,6.82,0,0,1-13.64,0v-14a3.41,3.41,0,0,0-6.82,0v14a6.82,6.82,0,0,1-13.64,0V595.75a6.82,6.82,0,0,1,13.64,0V606a10.24,10.24,0,0,1,20.47,0,10.24,10.24,0,0,1,20.47,0Z"/><path class="cls-4" d="M194.81,689.36l-.2-1.52h-.06a4.52,4.52,0,0,1-3.7,1.8,3.45,3.45,0,0,1-3.69-3.47c0-2.93,2.59-4.54,7.26-4.5v-.26a2.49,2.49,0,0,0-2.75-2.79,5.93,5.93,0,0,0-3.15.9l-.5-1.46a7.57,7.57,0,0,1,4-1.06c3.7,0,4.6,2.53,4.6,5v4.52a18.35,18.35,0,0,0,.18,2.89Zm-.34-6.17c-2.38-.05-5.11.38-5.11,2.71a1.94,1.94,0,0,0,2.06,2.11,3,3,0,0,0,2.94-2,2.26,2.26,0,0,0,.11-.7Z"/><path class="cls-4" d="M200.16,671.62h2.18v17.74h-2.18Z"/><path class="cls-4" d="M208.51,673.86a1.32,1.32,0,0,1-1.4,1.36,1.3,1.3,0,0,1-1.32-1.36,1.36,1.36,0,1,1,2.72,0Zm-2.46,15.5V677.28h2.19v12.08Z"/><path class="cls-4" d="M218.61,689.36l-.2-1.52h-.06a4.52,4.52,0,0,1-3.7,1.8,3.45,3.45,0,0,1-3.69-3.47c0-2.93,2.59-4.54,7.26-4.5v-.26a2.49,2.49,0,0,0-2.75-2.79,5.93,5.93,0,0,0-3.15.9l-.5-1.46a7.55,7.55,0,0,1,4-1.06c3.7,0,4.6,2.53,4.6,5v4.52a18.35,18.35,0,0,0,.18,2.89Zm-.35-6.17c-2.37-.05-5.1.38-5.1,2.71a1.94,1.94,0,0,0,2.05,2.11,3,3,0,0,0,2.95-2,2.23,2.23,0,0,0,.1-.7Z"/><path class="cls-4" d="M234.39,671.62v14.63c0,1.07,0,2.28.1,3.11h-2l-.11-2.09h-.06a4.42,4.42,0,0,1-4.1,2.37c-2.93,0-5.19-2.48-5.19-6.14,0-4,2.49-6.5,5.43-6.5a4,4,0,0,1,3.65,1.83h0v-7.21Zm-2.19,10.57a5.07,5.07,0,0,0-.09-.94,3.26,3.26,0,0,0-3.18-2.53c-2.28,0-3.64,2-3.64,4.66,0,2.45,1.22,4.49,3.59,4.49a3.31,3.31,0,0,0,3.21-2.64,3.51,3.51,0,0,0,.11-.94Z"/><path class="cls-4" d="M249,683.2c0,4.48-3.1,6.44-6,6.44-3.28,0-5.81-2.39-5.81-6.23,0-4,2.66-6.41,6-6.41S249,679.52,249,683.2Zm-9.58.14c0,2.66,1.52,4.65,3.66,4.65s3.69-2,3.69-4.71c0-2-1-4.63-3.65-4.63S239.41,681.05,239.41,683.34Z"/><path class="cls-4" d="M258.31,683.72a3.85,3.85,0,0,0,4.14,4.19,8,8,0,0,0,3.34-.62l.39,1.56a9.57,9.57,0,0,1-4,.78c-3.72,0-5.95-2.48-5.95-6.11s2.16-6.52,5.68-6.52c3.95,0,5,3.46,5,5.69a5.2,5.2,0,0,1-.08,1Zm6.43-1.59c0-1.38-.57-3.55-3-3.55-2.24,0-3.2,2-3.38,3.55Z"/><path class="cls-4" d="M269.6,680.54c0-1.26,0-2.26-.1-3.26h1.95l.12,2h.06a4.46,4.46,0,0,1,4-2.26c1.66,0,4.26,1,4.26,5.15v7.21H277.7v-7c0-1.95-.74-3.59-2.8-3.59a3.16,3.16,0,0,0-3,2.26,3.48,3.48,0,0,0-.15,1v7.28H269.6Z"/><path class="cls-4" d="M291.42,673.8v3.48h3.15v1.66h-3.15v6.52c0,1.5.43,2.35,1.66,2.35a4.31,4.31,0,0,0,1.27-.16l.1,1.67a5.5,5.5,0,0,1-2,.31,3.06,3.06,0,0,1-2.37-.94,4.58,4.58,0,0,1-.86-3.15v-6.6h-1.87v-1.66h1.87v-2.92Z"/><path class="cls-4" d="M307.16,686.05c0,1.27,0,2.36.1,3.31h-1.94l-.12-2h-.06a4.53,4.53,0,0,1-4,2.25c-1.89,0-4.17-1.06-4.17-5.3v-7.06h2.19V684c0,2.31.72,3.87,2.7,3.87a3.19,3.19,0,0,0,2.91-2,3.25,3.25,0,0,0,.2-1.13v-7.4h2.19Zm-1.5-14-3.05,3.58h-1.56l2.19-3.58Z"/><path class="cls-4" d="M316.13,680.54c0-1.26-.05-2.26-.1-3.26H318l.12,2h.06a4.47,4.47,0,0,1,4-2.26c1.66,0,4.26,1,4.26,5.15v7.21h-2.19v-7c0-1.95-.74-3.59-2.79-3.59a3.18,3.18,0,0,0-3,2.26,3.48,3.48,0,0,0-.15,1v7.28h-2.18Z"/><path class="cls-4" d="M340.11,686.05c0,1.27,0,2.36.1,3.31h-1.94l-.12-2h-.06a4.53,4.53,0,0,1-4,2.25c-1.89,0-4.17-1.06-4.17-5.3v-7.06h2.19V684c0,2.31.72,3.87,2.7,3.87a3.2,3.2,0,0,0,2.91-2,3.51,3.51,0,0,0,.2-1.13v-7.4h2.19Z"/><path class="cls-4" d="M346.41,673.8v3.48h3.16v1.66h-3.16v6.52c0,1.5.44,2.35,1.67,2.35a4.31,4.31,0,0,0,1.27-.16l.1,1.67a5.55,5.55,0,0,1-2,.31,3.1,3.1,0,0,1-2.38-.94,4.64,4.64,0,0,1-.85-3.15v-6.6h-1.87v-1.66h1.87v-2.92Z"/><path class="cls-4" d="M352.05,681c0-1.43,0-2.64-.1-3.76h1.92l.09,2.37H354A3.67,3.67,0,0,1,357.4,677a2.87,2.87,0,0,1,.61.06v2.07a3.3,3.3,0,0,0-.75-.06,3.06,3.06,0,0,0-2.94,2.81,5.53,5.53,0,0,0-.09,1v6.46h-2.18Z"/><path class="cls-4" d="M362.78,673.86a1.32,1.32,0,0,1-1.4,1.36,1.3,1.3,0,0,1-1.32-1.36,1.36,1.36,0,1,1,2.72,0Zm-2.46,15.5V677.28h2.19v12.08Z"/><path class="cls-4" d="M374.79,688.92a8.2,8.2,0,0,1-3.47.71c-3.64,0-6-2.49-6-6.18a6.16,6.16,0,0,1,6.5-6.45,7,7,0,0,1,3,.65l-.49,1.69a5.28,5.28,0,0,0-2.57-.58c-2.75,0-4.27,2.06-4.26,4.57,0,2.8,1.8,4.53,4.21,4.53a6.53,6.53,0,0,0,2.69-.58Z"/><path class="cls-4" d="M379.83,673.86a1.32,1.32,0,0,1-1.4,1.36,1.3,1.3,0,0,1-1.32-1.36,1.36,1.36,0,1,1,2.72,0Zm-2.46,15.5V677.28h2.19v12.08Z"/><path class="cls-4" d="M394.16,683.2c0,4.48-3.1,6.44-6,6.44-3.28,0-5.81-2.39-5.81-6.23,0-4,2.66-6.41,6-6.41S394.16,679.52,394.16,683.2Zm-9.58.14c0,2.66,1.52,4.65,3.66,4.65s3.69-2,3.69-4.71c0-2-1-4.63-3.65-4.63S384.58,681.05,384.58,683.34Zm7-11.31-3.05,3.58h-1.56l2.19-3.58Z"/><path class="cls-4" d="M397,680.54c0-1.26,0-2.26-.1-3.26h1.94l.12,2H399a4.48,4.48,0,0,1,4-2.26c1.66,0,4.26,1,4.26,5.15v7.21H405v-7c0-1.95-.73-3.59-2.79-3.59a3.16,3.16,0,0,0-3,2.26,3.48,3.48,0,0,0-.15,1v7.28H397Z"/></g></svg>