<svg xmlns="http://www.w3.org/2000/svg" viewBox="0 0 595.28 841.89"><defs><style>.cls-1{fill:#f1b71c;}.cls-2{fill:#f1a01f;}.cls-3{fill:none;stroke:#fff;stroke-miterlimit:10;stroke-width:6px;}</style></defs><title>LOGOArtboard 5 copy 3</title><g id="Layer_1" data-name="Layer 1"><path class="cls-1" d="M372.69,357.77c23.84,46.34-43.2,177.28-67.62,217.46-18.86,31-37.4,29.63-37.4,29.63s-18.53,1.38-37.39-29.63c-24.42-40.18-91.46-171.12-67.63-217.46s59.13-32.95,76.9-24.16c14.69,7.27,22,7.34,28.12,7.5,6.09-.16,13.44-.23,28.13-7.5C313.57,324.82,348.86,311.43,372.69,357.77Z"/><path class="cls-2" d="M459.52,257.31c36.74,71.43-66.6,273.27-104.25,335.21-29.06,47.81-57.64,45.68-57.64,45.68s-28.57,2.13-57.63-45.68c-5.6-9.21-12.74-22.26-9.72-17.29,18.86,31,37.39,29.63,37.39,29.63s18.54,1.38,37.39-29.63c24.42-40.18,91.46-171.12,67.63-217.46s-59.12-32.95-76.89-24.16c-14.69,7.27-22,7.34-28.13,7.5-6.09-.16-13.43-.23-28.12-7.5-17.77-8.79-53.07-22.18-76.9,24.16-8,15.63-20.08,7.74-28.24-10.65-7.8-35-9.33-66,0-87,.43-1,.88-1.9,1.35-2.81,36.73-71.43,91.13-50.79,118.53-37.24,22.65,11.2,34,11.31,43.35,11.55,9.39-.24,20.71-.35,43.36-11.55C368.38,206.52,422.79,185.88,459.52,257.31Z"/></g><g id="Layer_3" data-name="Layer 3"><path class="cls-3" d="M230.28,575.23c1.57,3,6.07,11,9.86,17.2"/><path class="cls-3" d="M134.55,347c7.89,17.78,19.41,25.74,27.43,12.14"/><path class="cls-3" d="M240.14,592.43c29.06,47.81,57.63,45.68,57.63,45.68s28.58,2.13,57.64-45.68c37.65-61.94,141-263.78,104.25-335.21S368.52,206.43,341.13,220c-22.65,11.2-34,11.31-43.36,11.55-9.38-.24-20.7-.35-43.35-11.55-27.4-13.55-81.8-34.19-118.53,37.24"/><path class="cls-3" d="M135.89,257.22c-.47.91-.92,1.85-1.35,2.81"/><path class="cls-3" d="M134.54,260c-9.32,21-7.79,52,0,87"/><path class="cls-3" d="M162,359.17c-21.84,47.51,44.12,176.27,68.3,216.06"/><path class="cls-3" d="M372.7,357.77c-23.83-46.34-59.13-32.95-76.9-24.16-14.69,7.27-22,7.34-28.12,7.5-6.09-.16-13.44-.23-28.13-7.5-17.77-8.79-53.06-22.18-76.89,24.16s43.21,177.28,67.63,217.46c18.85,31,37.39,29.63,37.39,29.63s18.53,1.39,37.39-29.63C329.49,535.05,396.53,404.11,372.7,357.77Z"/></g></svg>